<svg id="Layer_1" data-name="Layer 1" xmlns="http://www.w3.org/2000/svg" viewBox="0 0 500 500"><defs><style>.cls-1{fill:none;}.cls-2{fill:#f7b733;opacity:0.63;}.cls-3{fill:#f05033;}</style></defs><title>flametree-bg</title><path class="cls-1" d="M0,0V163.41c7.52,19.1,8.68,40.34,5.22,62.25-.31,2,.72,2.63,2.44,1.61.77-.46,1.56-.9,2.37-1.34a30.23,30.23,0,0,0,5.79-4.2c1.13-1.11,2.32-2.2,3.52-3.28-.22-.46-.32-.73-.32-.73s.79-.39,2.15-.9A142.38,142.38,0,0,1,40,203.16c27.51-16.88,60.83-29.68,83.9-49.32,11.45-9.74,23.77-21.53,27-34,3.17-12.11-7-24.89-9.39-37.34-.37-2,0-2,.87-.22,3.06,6.52,8.73,12.45,14.21,18.52,1.34,1.48,2.94,1.17,3.54-.73a98.1,98.1,0,0,0,3.81-16,75.52,75.52,0,0,0,.55-7.82c.07-2,2.15-5.56,2.86-3.7.46,1.21.69,3.65.35,8.3s-.35,9.23-1,13.79A99.27,99.27,0,0,1,157.37,124c-5.52,11.16-13.56,22.14-23.61,32.46,2-.65,22.45-7,34.05,10a148.06,148.06,0,0,1,16.22-3c18.61-2.38,38.44-2.71,57.5-4.21-8.22-.32-28.78-3.81-29.42-30.8,30.81-1,32.67,27.71,32.77,30.52,12.55-1.1,24.71-2.8,35.9-6,14.43-4.19,30.51-9.87,38.59-19.89,7.85-9.75,3.81-25.58,6.77-37.91.46-2,.85-1.85.88.15.11,7.21,2.86,14.93,5.36,22.72.61,1.91,2.19,2.28,3.53.79a98.12,98.12,0,0,0,10-13,76.14,76.14,0,0,0,3.71-6.9,7,7,0,0,1,3-2.79c2-31.66,33.28-29.49,33.28-29.49s.34,31.31-32.13,30.19c-.1,1.31-.91,3.61-3.07,7.59s-4.11,8.28-6.6,12.16a98.9,98.9,0,0,1-20.5,22.93c-28.49,23.45-76.43,36.37-127.22,33-2-.13-2.23.59-.43,1.46,9.51,4.61,22.48,6.83,31.69,7.67,2,.18,2.17,1,.31,1.77a43.14,43.14,0,0,1-31.29-.28c-3.86-1.5-6.7-4.13-9.65-6.74-4.46-4-5.64-2.2-9.58-1.38q-2.5.52-5,1.13c.21.63.41,1.27.6,1.94a37.69,37.69,0,0,1-12.55,1.64c-.43.16-.88.3-1.32.47-24.21,9.14-40.07,26.58-47.59,48-8,22.73-7.27,49.32-10.54,74.07a95.62,95.62,0,0,1-5.89,22.78,5.49,5.49,0,0,0,1.31,5.75,82.69,82.69,0,0,1,6.3,6.25c1.32,1.49,2.51,1.18,2.81-.8,7.42-48.3,35.2-86.68,96.35-94.52,32-4.09,67.67-2.09,96.76-10.53,14.43-4.18,30.51-9.87,38.58-19.89,7.86-9.74,3.81-25.58,6.77-37.91.47-1.94.85-1.84.89.16.11,7.21,2.85,14.93,5.35,22.72.61,1.9,2.2,2.27,3.53.78a96.64,96.64,0,0,0,10-13,73.73,73.73,0,0,0,3.71-6.9c.89-1.79,4.25-4.2,4.13-2.2-.07,1.29-.87,3.62-3.08,7.7s-4.11,8.28-6.6,12.16a99.42,99.42,0,0,1-20.51,22.94c-28.49,23.44-76.43,36.37-127.21,33-2-.14-15,1.67-18.94,2.5a122.63,122.63,0,0,0-18.23,5.17c-24.21,9.14-40.07,26.57-47.59,48-8,22.73-7.28,49.32-10.54,74.07-3.33,25.25-15.56,44.2-31.57,62.16-1.34,1.5-1,1.9.8,1.05a51.18,51.18,0,0,1,29.69-4.24c2,.31,1.93.59-.07.7-19.67,1-29.71,15.89-39.26,26.24a97.36,97.36,0,0,1-7,7c-3.91,3.45-2.9,12.06-3.46,17.38-.33,3.06-.62,6.13-.9,9.21H500V0ZM14,168s31.31-7.16,36.53,26.2C18.55,199.42,14,168,14,168ZM52.73,148.4s31.33-7.09,36.48,26.29C57.21,179.88,52.73,148.4,52.73,148.4ZM89.6,135s25.56-19.45,44.09,8.77C106.73,161.81,89.6,135,89.6,135Zm58.83-12c-30.53,10.9-40.63-19.25-40.63-19.25S137.33,91.12,148.43,123ZM140.55,79.7c-31.84-6.13-25.21-37.22-25.21-37.22S147.19,46.59,140.55,79.7Zm61.22-37.19s.37,32.12-33.34,30.16C170.05,40.29,201.77,42.51,201.77,42.51Zm-48.44,93.42s16-27.86,44-9.05C179.52,154,153.33,135.93,153.33,135.93Zm15.1-29.54s4.08-31.86,37.19-25.25C199.53,113,168.43,106.39,168.43,106.39ZM254,118.83c32.4-1,32.78,30.76,32.78,30.76S254.79,152.59,254,118.83Zm22.46-11.42C304.52,91.18,319.88,119,319.88,119S293.11,136.78,276.45,107.41ZM324.06,92c-32.38-1.63-30.16-33.34-30.16-33.34S326,58.3,324.06,92ZM114.37,230.61c31.42-8,38.63,23,38.63,23S122.41,263.4,114.37,230.61Zm56.42-23.1c32.26-3.26,34.83,28.43,34.83,28.43S173.92,241.13,170.79,207.51ZM121,437.1c9-31.13,39.39-21.66,39.39-21.66S153.32,446.78,121,437.1Zm3.21-55.88c1.22-32.39,33-30.57,33-30.57S157.91,382.77,124.18,381.22Zm4.54-60c9.07-31.13,39.41-21.63,39.41-21.63S161.06,331,128.72,321.25Zm55-61.46C216.08,258.19,217,290,217,290S185.09,293.53,183.7,259.79Zm52.87-56.89c32.25-3.26,34.82,28.43,34.82,28.43S239.7,236.52,236.57,202.9Zm-5.06-20.64c23.5-22.33,44.94,1.14,44.94,1.14S254.57,206.92,231.51,182.26Zm60.09,6.16c32.25-3.26,34.82,28.43,34.82,28.43S294.72,222,291.6,188.42Zm6.57-29.76c29.94-12.43,41.54,17.17,41.54,17.17S310.86,190,298.17,158.66Zm45.23-35.59c23.4-22.44,44.94.94,44.94.94S366.57,147.63,343.4,123.07Zm-70,162s-32.07,1.7-31.51-32.06C274.32,253.28,273.42,285.06,273.42,285.06Zm32-41.49C337.08,236.8,343.1,268,343.1,268S312.16,276.65,305.38,243.57Zm43.83-22.74c23.61-22.21,44.93,1.37,44.93,1.37S372.14,245.61,349.21,220.83Zm25.09-47.46c3.47-32.23,35-28.21,35-28.21S407.84,177.25,374.3,173.37Z"/><path class="cls-1" d="M25.31,227.51c-.38.37-.78.72-1.15,1.09C5.84,246.87-1.47,269.28.47,291.9c.07.8.15,1.61.24,2.41a25.45,25.45,0,0,0,1.62,5.79,101.83,101.83,0,0,0,7.44,13.95,3.76,3.76,0,0,0,5.07,1.25A71.87,71.87,0,0,0,23,309.74c1.56-1.25,1.73-1.11.5.46-2.22,2.82-4.46,5.65-6.74,8.46a5.35,5.35,0,0,0-.32,5.87c6.26,9.86,11.94,19.88,12.83,31.4q.29,3.65.25,7.31c0,2,.81,2.27,2,.68,10.91-14,28.67-23.29,39.15-37.71a56.73,56.73,0,0,0,5.57-9.6c.84-1.81,1.21-3.82.93-4.43s-.26-.71.09-.26,1.24-.67,1.89-2.57A108.14,108.14,0,0,0,82.74,296c1-4.8,2.84-9.86.71-15.68-1.81-5-5.84-10-8.58-14.93-5.41-9.82-10.08-19.56-14.56-29.28a7,7,0,0,1-.49-1.27C42.63,241.79,31.52,234.59,25.31,227.51Z"/><path class="cls-1" d="M133.63,156.64c-19.72,20.23-47.19,38-78.72,49.71-1.88.69-1.79,1.44.21,1.49,10.56.31,23.3-3,32-6,1.89-.65,2.41.06,1,1.49a43.15,43.15,0,0,1-28.63,12.59c-4.14.21-7.82-1-11.58-2.19-4.6-1.44-5.71-.35-7.69,1.38,7.43,1.68,15.22,6.84,20.46,19.4l-.71.29a7.35,7.35,0,0,1,.89,1c6.56,8.3,16.83,15.05,24,23.06,1.33,1.5,2.51,1.19,2.81-.79,2.9-18.89,8.94-36.24,18.84-50.86a38.3,38.3,0,0,1-16.89-5.8s12.47-21.68,34.66-13.84a98,98,0,0,1,21.16-13.3C137,167.72,133.92,157.65,133.63,156.64Z"/><path class="cls-1" d="M88.61,404.44c6.37-8.75,9.78-19.23,12-30.18a62.68,62.68,0,0,0,1.61-8.68,3.41,3.41,0,0,0-3.72-3.47c-18.75,1.6-28.57,16-37.89,26.1a95.46,95.46,0,0,1-7,7c-3.9,3.44-2.9,12.06-3.46,17.38-1,9.62-1.77,19.36-2.64,29-.17,2,.57,2.26,1.8.68C60.25,428.18,78.09,418.91,88.61,404.44Z"/><path class="cls-1" d="M70.27,365.52a51.18,51.18,0,0,1,28.25-4.38c2,.25,3.48-.14,3.28-1a15.24,15.24,0,0,0-.47-1.55c-1.8-4.95-5.83-10-8.57-14.93-.59-1.06-1.16-2.12-1.72-3.18-.93-1.76-2.46-1.77-3.48-.05a159.2,159.2,0,0,1-18.09,24C68.14,366,68.46,366.36,70.27,365.52Z"/><path class="cls-2" d="M40.27,215.1c2-1.73,3.09-2.82,7.69-1.38,3.76,1.17,7.44,2.4,11.58,2.19a43.15,43.15,0,0,0,28.63-12.59c1.4-1.43.88-2.14-1-1.49-8.74,3-21.48,6.32-32,6-2-.05-2.09-.8-.21-1.49,31.53-11.75,59-29.48,78.72-49.71l0-.08.15-.06c10.05-10.32,18.09-21.3,23.61-32.46a99.27,99.27,0,0,0,9.28-29.33c.68-4.56.68-9.19,1-13.79s.11-7.09-.35-8.3c-.71-1.86-2.79,1.71-2.86,3.7a75.52,75.52,0,0,1-.55,7.82,98.1,98.1,0,0,1-3.81,16c-.6,1.9-2.2,2.21-3.54.73-5.48-6.07-11.15-12-14.21-18.52-.85-1.82-1.24-1.75-.87.22,2.36,12.45,12.56,25.23,9.39,37.34-3.25,12.45-15.57,24.24-27,34-23.07,19.64-56.39,32.44-83.9,49.32a142.38,142.38,0,0,0-18.79,13.66C24.75,215.47,32.3,213.29,40.27,215.1Z"/><path class="cls-2" d="M177.41,175.06c3.94-.82,5.12-2.58,9.58,1.38,2.95,2.61,5.79,5.24,9.65,6.74a43.14,43.14,0,0,0,31.29.28c1.86-.73,1.68-1.59-.31-1.77-9.21-.84-22.18-3.06-31.69-7.67-1.8-.87-1.57-1.59.43-1.46,50.79,3.38,98.73-9.54,127.22-33a98.9,98.9,0,0,0,20.5-22.93c2.49-3.88,4.4-8.11,6.6-12.16s3-6.28,3.07-7.59c-.4,0-.79,0-1.2,0,0-.23,0-.44.05-.66a7,7,0,0,0-3,2.79,76.14,76.14,0,0,1-3.71,6.9,98.12,98.12,0,0,1-10,13c-1.34,1.49-2.92,1.12-3.53-.79-2.5-7.79-5.25-15.51-5.36-22.72,0-2-.42-2.1-.88-.15-3,12.33,1.08,28.16-6.77,37.91-8.08,10-24.16,15.7-38.59,19.89-11.19,3.24-23.35,4.94-35.9,6,0,.14,0,.24,0,.24a28.44,28.44,0,0,1-3.36,0c-19.06,1.5-38.89,1.83-57.5,4.21a148.06,148.06,0,0,0-16.22,3,37.84,37.84,0,0,1,4.64,9.69Q174.91,175.59,177.41,175.06Z"/><path class="cls-2" d="M71.6,473.41a97.36,97.36,0,0,0,7-7c9.55-10.35,19.59-25.26,39.26-26.24,2-.11,2-.39.07-.7a51.18,51.18,0,0,0-29.69,4.24c-1.82.85-2.14.45-.8-1.05,16-18,28.24-36.91,31.57-62.16,3.26-24.75,2.56-51.34,10.54-74.07,7.52-21.42,23.38-38.85,47.59-48a122.63,122.63,0,0,1,18.23-5.17c3.93-.83,16.94-2.64,18.94-2.5,50.78,3.38,98.72-9.55,127.21-33A99.42,99.42,0,0,0,362,194.87c2.49-3.88,4.39-8.1,6.6-12.16s3-6.41,3.08-7.7c.12-2-3.24.41-4.13,2.2a73.73,73.73,0,0,1-3.71,6.9,96.64,96.64,0,0,1-10,13c-1.33,1.49-2.92,1.12-3.53-.78-2.5-7.79-5.24-15.51-5.35-22.72,0-2-.42-2.1-.89-.16-3,12.33,1.09,28.17-6.77,37.91-8.07,10-24.15,15.71-38.58,19.89-29.09,8.44-64.74,6.44-96.76,10.53C140.78,249.6,113,288,105.58,336.28c-.3,2-1.49,2.29-2.81.8a82.69,82.69,0,0,0-6.3-6.25,5.49,5.49,0,0,1-1.31-5.75,95.62,95.62,0,0,0,5.89-22.78c3.27-24.75,2.57-51.34,10.54-74.07,7.52-21.41,23.38-38.85,47.59-48,.44-.17.89-.31,1.32-.47a26.26,26.26,0,0,1-15.06-5.52,98,98,0,0,0-21.16,13.3,42.11,42.11,0,0,1,9.38,4.82c-8.41,12.74-18.65,15.48-27.15,14.82-9.9,14.62-15.94,32-18.84,50.86-.3,2-1.48,2.29-2.81.79-7.12-8-17.39-14.76-24-23.06a7.35,7.35,0,0,0-.89-1l-.2.08a7,7,0,0,0,.49,1.27c4.48,9.72,9.15,19.46,14.56,29.28,2.74,4.95,6.77,10,8.58,14.93,2.13,5.82.26,10.88-.71,15.68a108.14,108.14,0,0,1-3.54,13.32c-.65,1.9-1.53,3-1.89,2.57s-.38-.34-.09.26-.09,2.62-.93,4.43a56.73,56.73,0,0,1-5.57,9.6c-10.48,14.42-28.24,23.68-39.15,37.71-1.22,1.59-2,1.32-2-.68q0-3.66-.25-7.31c-.89-11.52-6.57-21.54-12.83-31.4a5.35,5.35,0,0,1,.32-5.87c2.28-2.81,4.52-5.64,6.74-8.46,1.23-1.57,1.06-1.71-.5-.46a71.87,71.87,0,0,1-8.18,5.56,3.76,3.76,0,0,1-5.07-1.25A101.83,101.83,0,0,1,2.33,300.1a25.45,25.45,0,0,1-1.62-5.79c-.09-.8-.17-1.61-.24-2.41-1.94-22.62,5.37-45,23.69-63.3.37-.37.77-.72,1.15-1.09a39.34,39.34,0,0,1-6-9.06c-1.2,1.08-2.39,2.17-3.52,3.28a30.23,30.23,0,0,1-5.79,4.2c-.81.44-1.6.88-2.37,1.34-1.72,1-2.75.37-2.44-1.61,3.46-21.91,2.3-43.15-5.22-62.25V500H67.24c.28-3.08.57-6.15.9-9.21C68.7,485.47,67.69,476.86,71.6,473.41ZM69.47,364.47a159.2,159.2,0,0,0,18.09-24c1-1.72,2.55-1.71,3.48.05.56,1.06,1.13,2.12,1.72,3.18,2.74,4.95,6.77,10,8.57,14.93a15.24,15.24,0,0,1,.47,1.55c.2.86-1.29,1.25-3.28,1a51.18,51.18,0,0,0-28.25,4.38C68.46,366.36,68.14,366,69.47,364.47ZM49.36,442.29c-1.23,1.58-2,1.32-1.8-.68.87-9.68,1.61-19.42,2.64-29,.56-5.32-.44-13.94,3.46-17.38a95.46,95.46,0,0,0,7-7c9.32-10.09,19.14-24.5,37.89-26.1a3.41,3.41,0,0,1,3.72,3.47,62.68,62.68,0,0,1-1.61,8.68c-2.23,10.95-5.64,21.43-12,30.18C78.09,418.91,60.25,428.18,49.36,442.29Z"/><path class="cls-3" d="M293.9,58.67S291.68,90.38,324.06,92C326,58.3,293.9,58.67,293.9,58.67Z"/><path class="cls-3" d="M353.75,96.89C386.22,98,385.88,66.7,385.88,66.7s-31.25-2.17-33.28,29.49c0,.22,0,.43-.05.66C353,96.88,353.35,96.88,353.75,96.89Z"/><path class="cls-3" d="M388.34,124s-21.54-23.38-44.94-.94C366.57,147.63,388.34,124,388.34,124Z"/><path class="cls-3" d="M276.45,107.41C293.11,136.78,319.88,119,319.88,119S304.52,91.18,276.45,107.41Z"/><path class="cls-3" d="M115.34,42.48s-6.63,31.09,25.21,37.22C147.19,46.59,115.34,42.48,115.34,42.48Z"/><path class="cls-3" d="M201.77,42.51s-31.72-2.22-33.34,30.16C202.14,74.63,201.77,42.51,201.77,42.51Z"/><path class="cls-3" d="M168.43,106.39s31.1,6.59,37.19-25.25C172.51,74.53,168.43,106.39,168.43,106.39Z"/><path class="cls-3" d="M107.8,103.76s10.1,30.15,40.63,19.25C137.33,91.12,107.8,103.76,107.8,103.76Z"/><path class="cls-3" d="M153.33,135.93s26.19,18,44-9.05C169.32,108.07,153.33,135.93,153.33,135.93Z"/><path class="cls-3" d="M89.6,135s17.13,26.78,44.09,8.77C115.16,115.58,89.6,135,89.6,135Z"/><path class="cls-3" d="M52.73,148.4s4.48,31.48,36.48,26.29C84.06,141.31,52.73,148.4,52.73,148.4Z"/><path class="cls-3" d="M14,168s4.55,31.47,36.53,26.2C45.31,160.79,14,168,14,168Z"/><path class="cls-3" d="M133.63,156.64c.29,1,3.37,11.08,11.81,17.61a26.26,26.26,0,0,0,15.06,5.52,37.69,37.69,0,0,0,12.55-1.64c-.19-.67-.39-1.31-.6-1.94a37.84,37.84,0,0,0-4.64-9.69c-11.6-17-32.09-10.65-34.05-10l-.15.06Z"/><path class="cls-3" d="M89.62,201.39a38.3,38.3,0,0,0,16.89,5.8c8.5.66,18.74-2.08,27.15-14.82a42.11,42.11,0,0,0-9.38-4.82C102.09,179.71,89.62,201.39,89.62,201.39Z"/><path class="cls-3" d="M59.82,234.87l.2-.08.71-.29c-5.24-12.56-13-17.72-20.46-19.4-8-1.81-15.52.37-19.1,1.72-1.36.51-2.15.9-2.15.9s.1.27.32.73a39.34,39.34,0,0,0,6,9.06C31.52,234.59,42.63,241.79,59.82,234.87Z"/><path class="cls-3" d="M254,118.83c.8,33.76,32.78,30.76,32.78,30.76S286.39,117.8,254,118.83Z"/><path class="cls-3" d="M298.17,158.66c12.69,31.29,41.54,17.17,41.54,17.17S328.11,146.23,298.17,158.66Z"/><path class="cls-3" d="M231.51,182.26c23.06,24.66,44.94,1.14,44.94,1.14S255,159.93,231.51,182.26Z"/><path class="cls-3" d="M244.89,159.28s0-.1,0-.24c-.1-2.81-2-31.5-32.77-30.52.64,27,21.2,30.48,29.42,30.8A28.44,28.44,0,0,0,244.89,159.28Z"/><path class="cls-3" d="M121,437.1c32.35,9.68,39.39-21.66,39.39-21.66S130,406,121,437.1Z"/><path class="cls-3" d="M157.14,350.65s-31.74-1.82-33,30.57C157.91,382.77,157.14,350.65,157.14,350.65Z"/><path class="cls-3" d="M128.72,321.25c32.34,9.7,39.41-21.63,39.41-21.63S137.79,290.12,128.72,321.25Z"/><path class="cls-3" d="M183.7,259.79C185.09,293.53,217,290,217,290S216.08,258.19,183.7,259.79Z"/><path class="cls-3" d="M241.91,253c-.56,33.76,31.51,32.06,31.51,32.06S274.32,253.28,241.91,253Z"/><path class="cls-3" d="M374.3,173.37c33.54,3.88,35-28.21,35-28.21S377.77,141.14,374.3,173.37Z"/><path class="cls-3" d="M170.79,207.51c3.13,33.62,34.83,28.43,34.83,28.43S203.05,204.25,170.79,207.51Z"/><path class="cls-3" d="M114.37,230.61c8,32.79,38.63,23,38.63,23S145.79,222.64,114.37,230.61Z"/><path class="cls-3" d="M236.57,202.9c3.13,33.62,34.82,28.43,34.82,28.43S268.82,199.64,236.57,202.9Z"/><path class="cls-3" d="M305.38,243.57C312.16,276.65,343.1,268,343.1,268S337.08,236.8,305.38,243.57Z"/><path class="cls-3" d="M291.6,188.42c3.12,33.62,34.82,28.43,34.82,28.43S323.85,185.16,291.6,188.42Z"/><path class="cls-3" d="M349.21,220.83c22.93,24.78,44.93,1.37,44.93,1.37S372.82,198.62,349.21,220.83Z"/></svg>